<svg width="165" height="71" viewBox="0 0 165 71" fill="none" xmlns="http://www.w3.org/2000/svg">
<path d="M21.0258 0C17.8116 1.05666 15.2967 2.21694 12.198 4.53524C11.7962 4.9263 11.4023 5.32573 11.0166 5.73329C11.0607 5.83915 11.1285 5.96987 11.2289 6.15409C11.4152 6.49671 11.7364 6.90647 12.1405 7.31174C11.5212 8.3252 10.9399 9.3623 10.3979 10.4208C9.7258 9.85223 9.12266 9.21954 8.63803 8.50942C7.2327 10.2956 5.97853 12.2 4.88898 14.2023C4.96143 14.5083 5.17459 14.8419 5.58236 15.2889C6.06957 15.8225 6.83064 16.3736 7.71498 16.8438C7.34371 17.9878 7.02526 19.1262 6.76369 20.2625C5.39893 19.6304 4.15065 18.8098 3.16945 17.7671C2.06325 20.3902 1.23874 23.1277 0.710321 25.9317C0.955207 26.3869 1.3916 26.8037 2.0516 27.2468C2.98198 27.8714 4.31886 28.3831 5.77203 28.6788C5.76378 29.8827 5.81789 31.0768 5.92098 32.2554C3.82854 31.9425 1.81112 31.2739 0.165702 30.169C0.15653 30.1626 0.146258 30.1578 0.137086 30.1514C-0.0978696 33.0122 -0.0306522 35.8906 0.337581 38.7368C0.761316 39.3876 1.47048 39.8508 2.52725 40.2213C3.88577 40.6975 5.73223 40.8467 7.61207 40.6537C7.97894 41.7987 8.39626 42.9223 8.86127 44.0201C6.29868 44.4124 3.68161 44.3234 1.41508 43.5292C1.35326 43.5075 1.2931 43.482 1.23164 43.459C1.95717 46.3353 2.99343 49.1206 4.32143 51.7638C4.97317 52.2882 5.85311 52.5523 7.0216 52.6346C8.72754 52.755 10.9002 52.3111 12.9719 51.4483C13.6511 52.4291 14.3702 53.3807 15.1272 54.3004C12.4546 55.5562 9.55814 56.2968 6.86109 56.1238C8.68697 58.8578 10.8334 61.3543 13.2527 63.5579C14.0341 63.8283 14.9587 63.8319 16.0728 63.6103C17.8338 63.26 19.8984 62.2256 21.7648 60.805C21.7663 60.8059 21.7696 60.804 21.7707 60.805C22.7137 61.548 23.6871 62.2499 24.6884 62.9089C22.4916 64.7623 19.9879 66.2185 17.4372 66.8775C19.5922 68.3643 21.8868 69.6289 24.2873 70.6527C25.1929 70.7318 26.1748 70.4732 27.2853 69.9222C28.6926 69.2237 30.1799 68.0049 31.5098 66.5035C34.6348 67.772 37.8809 68.6018 41.1517 68.917L41.4783 65.4337C38.861 65.1812 36.235 64.5416 33.6709 63.5751C34.9335 61.4977 35.8006 59.2413 36.0445 57.3217C36.2606 55.6172 36.0598 54.3 35.3508 53.3124C33.8686 53.0169 32.436 52.5755 31.063 52.0032C31.0314 53.2133 30.75 54.4321 30.2889 55.5742C29.6019 57.2766 28.5426 58.9028 27.2567 60.3844C26.2708 59.7659 25.3125 59.1029 24.3847 58.3973C25.599 57.0541 26.5718 55.5976 27.1189 54.2417C27.8171 52.5125 27.8844 51.1413 27.2336 49.9757C25.8123 49.0487 24.4815 47.9677 23.2498 46.7553C22.9245 47.5594 22.4817 48.3206 21.9598 49.0171C20.9553 50.3571 19.6537 51.5437 18.1879 52.5527C17.4321 51.67 16.7108 50.7567 16.0325 49.8057C17.3444 48.9279 18.4714 47.9168 19.2371 46.8953C20.1612 45.6621 20.5615 44.5744 20.4236 43.5114C19.5002 42.2691 18.6723 40.9561 17.9472 39.584C17.5275 40.0873 17.0567 40.5439 16.5426 40.946C15.303 41.9139 13.8281 42.6582 12.2491 43.1959C11.7731 42.1317 11.3398 41.0455 10.9651 39.9348C12.3275 39.485 13.557 38.872 14.4559 38.1699C15.5007 37.3541 16.0705 36.5718 16.2044 35.6919C15.642 34.1745 15.188 32.6177 14.8458 31.0336C14.5033 31.2347 14.147 31.4106 13.7797 31.5597C12.4131 32.1108 10.8906 32.3889 9.32591 32.448C9.20213 31.2852 9.13888 30.1166 9.13642 28.947C10.4126 28.8978 11.6062 28.6782 12.519 28.3102C13.3628 27.9698 13.9122 27.5995 14.2328 27.1413C14.0414 25.2895 13.9915 23.4254 14.0837 21.5657C13.9644 21.5851 13.847 21.5993 13.7282 21.6124C12.5131 21.748 11.2415 21.6405 9.98499 21.3613C10.2363 20.2429 10.5481 19.1152 10.9194 17.9831C11.8127 18.1576 12.669 18.2118 13.3554 18.1354C13.8349 18.0819 14.1868 17.994 14.456 17.8724C14.708 16.2253 15.074 14.5984 15.5512 13.0039C14.784 12.8662 14.0316 12.6126 13.3041 12.2792C13.8356 11.2339 14.4073 10.2104 15.0181 9.21112C15.4609 9.39122 15.8832 9.52251 16.2447 9.57955C16.4478 9.61135 16.6158 9.62911 16.755 9.63192C17.112 8.76414 17.4928 7.91694 17.9074 7.09536C18.9893 4.88815 20.1847 2.55975 21.0258 0Z" fill="url(#paint0_linear_74_696)"/>
<path d="M143.741 0.768066C146.895 1.80176 149.363 2.93681 152.405 5.20471C152.799 5.58727 153.186 5.97802 153.564 6.37672C153.521 6.48027 153.455 6.60816 153.356 6.78837C153.173 7.12354 152.858 7.5244 152.461 7.92086C153.069 8.91229 153.64 9.92683 154.172 10.9623C154.831 10.4061 155.423 9.78718 155.899 9.0925C157.278 10.8398 158.509 12.7029 159.579 14.6616C159.507 14.961 159.298 15.2873 158.898 15.7246C158.42 16.2466 157.673 16.7857 156.805 17.2457C157.169 18.3648 157.482 19.4785 157.739 20.5901C159.078 19.9717 160.303 19.1689 161.266 18.1489C162.352 20.715 163.161 23.393 163.68 26.136C163.439 26.5813 163.011 26.9891 162.363 27.4225C161.45 28.0336 160.138 28.5342 158.712 28.8234C158.72 30.0011 158.667 31.1693 158.566 32.3222C160.619 32.0162 162.599 31.3621 164.214 30.2812C164.223 30.275 164.233 30.2702 164.242 30.264C164.473 33.0627 164.407 35.8784 164.046 38.6627C163.63 39.2994 162.934 39.7526 161.897 40.115C160.563 40.5808 158.751 40.7268 156.906 40.538C156.546 41.658 156.136 42.7572 155.68 43.8312C158.195 44.215 160.764 44.1279 162.988 43.3509C163.049 43.3297 163.108 43.3048 163.168 43.2823C162.456 46.096 161.439 48.8208 160.136 51.4066C159.496 51.9196 158.632 52.1779 157.485 52.2584C155.811 52.3763 153.679 51.9419 151.645 51.098C150.979 52.0574 150.273 52.9883 149.53 53.888C152.153 55.1166 154.996 55.8411 157.643 55.6718C155.851 58.3464 153.744 60.7886 151.37 62.9443C150.603 63.2088 149.695 63.2123 148.602 62.9955C146.873 62.6528 144.847 61.6409 143.015 60.2512C143.014 60.2521 143.01 60.2503 143.009 60.2512C142.084 60.978 141.128 61.6647 140.146 62.3094C142.302 64.1225 144.759 65.547 147.263 66.1917C145.148 67.6461 142.895 68.8833 140.539 69.8848C139.651 69.9622 138.687 69.7092 137.597 69.1702C136.216 68.4869 134.756 67.2946 133.451 65.8258C130.383 67.0668 127.198 67.8785 123.987 68.1868L123.667 64.7793C126.236 64.5323 128.813 63.9066 131.33 62.9611C130.09 60.9288 129.239 58.7215 129 56.8436C128.788 55.1762 128.985 53.8876 129.681 52.9215C131.136 52.6324 132.542 52.2006 133.889 51.6408C133.92 52.8245 134.196 54.0168 134.649 55.1341C135.323 56.7996 136.363 58.3903 137.625 59.8397C138.593 59.2347 139.533 58.5861 140.444 57.8958C139.252 56.5818 138.297 55.157 137.76 53.8306C137.075 52.139 137.009 50.7975 137.648 49.6574C139.043 48.7505 140.349 47.693 141.558 46.5069C141.877 47.2936 142.312 48.0382 142.824 48.7195C143.81 50.0304 145.087 51.1913 146.526 52.1783C147.268 51.3148 147.976 50.4214 148.641 49.4911C147.354 48.6323 146.248 47.6432 145.496 46.6439C144.589 45.4375 144.196 44.3735 144.332 43.3335C145.238 42.1183 146.05 40.8338 146.762 39.4915C147.174 39.9839 147.636 40.4305 148.141 40.824C149.357 41.7707 150.805 42.4989 152.355 43.0249C152.822 41.9839 153.247 40.9213 153.615 39.8347C152.278 39.3947 151.071 38.795 150.189 38.1082C149.163 37.3101 148.604 36.5448 148.473 35.684C149.025 34.1996 149.47 32.6767 149.806 31.127C150.142 31.3238 150.492 31.4958 150.852 31.6416C152.194 32.1808 153.688 32.4529 155.224 32.5107C155.345 31.3732 155.407 30.2299 155.41 29.0858C154.157 29.0377 152.986 28.8229 152.09 28.4628C151.262 28.1298 150.722 27.7676 150.408 27.3193C150.596 25.5078 150.645 23.6842 150.554 21.8649C150.671 21.8839 150.786 21.8979 150.903 21.9107C152.096 22.0433 153.344 21.9381 154.577 21.665C154.33 20.5709 154.024 19.4677 153.66 18.3602C152.783 18.5309 151.943 18.584 151.269 18.5092C150.798 18.4568 150.453 18.3709 150.189 18.2519C149.941 16.6406 149.582 15.0491 149.114 13.4893C149.867 13.3546 150.605 13.1065 151.319 12.7803C150.798 11.7577 150.236 10.7565 149.637 9.77894C149.202 9.95513 148.788 10.0836 148.433 10.1394C148.234 10.1705 148.069 10.1878 147.932 10.1906C147.582 9.34168 147.208 8.5129 146.801 7.70918C145.739 5.54995 144.566 3.27217 143.741 0.768066Z" fill="url(#paint1_linear_74_696)"/>
<defs>
<linearGradient id="paint0_linear_74_696" x1="20.7391" y1="0" x2="20.7391" y2="70.6667" gradientUnits="userSpaceOnUse">
<stop stop-color="#FFB87B"/>
<stop offset="1" stop-color="#5C2F01" stop-opacity="0"/>
</linearGradient>
<linearGradient id="paint1_linear_74_696" x1="144.022" y1="0.768066" x2="144.022" y2="69.8985" gradientUnits="userSpaceOnUse">
<stop stop-color="#FF8114"/>
<stop offset="1" stop-color="#5C2F01" stop-opacity="0"/>
</linearGradient>
</defs>
</svg>
