<svg width="56" height="56" viewBox="0 0 56 56" fill="none" xmlns="http://www.w3.org/2000/svg">
<path d="M47.25 20.9997C47.2519 17.7557 46.434 14.5637 44.8721 11.7204C43.3103 8.87706 41.0552 6.47455 38.3163 4.73602C35.5774 2.99749 32.4436 1.97932 29.2059 1.7761C25.9683 1.57287 22.7317 2.19117 19.7969 3.57357C16.8622 4.95597 14.3244 7.05763 12.4192 9.68334C10.5141 12.3091 9.30342 15.3736 8.89967 18.5925C8.49593 21.8113 8.9122 25.08 10.1098 28.0949C11.3074 31.1098 13.2476 33.7731 15.75 35.8375V52.4997C15.7498 52.7982 15.8259 53.0917 15.9711 53.3525C16.1163 53.6132 16.3258 53.8325 16.5797 53.9894C16.8335 54.1464 17.1233 54.2358 17.4214 54.2492C17.7196 54.2626 18.0162 54.1995 18.2831 54.066L28 49.2185L37.7191 54.0769C37.9628 54.1933 38.2299 54.2524 38.5 54.2497C38.9641 54.2497 39.4093 54.0653 39.7374 53.7372C40.0656 53.409 40.25 52.9638 40.25 52.4997V35.8375C42.4395 34.0342 44.2027 31.7686 45.413 29.2032C46.6233 26.6378 47.2506 23.8363 47.25 20.9997ZM12.25 20.9997C12.25 17.8847 13.1737 14.8396 14.9044 12.2495C16.635 9.65941 19.0948 7.64069 21.9727 6.44861C24.8507 5.25653 28.0175 4.94463 31.0727 5.55234C34.1279 6.16006 36.9343 7.6601 39.1369 9.86278C41.3396 12.0655 42.8397 14.8718 43.4474 17.927C44.0551 20.9822 43.7432 24.149 42.5511 27.027C41.359 29.9049 39.3403 32.3647 36.7502 34.0954C34.1602 35.826 31.1151 36.7497 28 36.7497C23.8243 36.7451 19.8209 35.0842 16.8682 32.1315C13.9155 29.1788 12.2546 25.1754 12.25 20.9997ZM15.75 20.9997C15.75 18.5769 16.4685 16.2085 17.8145 14.194C19.1605 12.1795 21.0737 10.6094 23.3121 9.68219C25.5505 8.75501 28.0136 8.51242 30.3899 8.98509C32.7661 9.45776 34.9489 10.6245 36.6621 12.3377C38.3753 14.0508 39.542 16.2336 40.0146 18.6099C40.4873 20.9861 40.2447 23.4492 39.3175 25.6876C38.3904 27.926 36.8202 29.8392 34.8057 31.1852C32.7912 32.5313 30.4228 33.2497 28 33.2497C24.7522 33.2462 21.6383 31.9545 19.3418 29.6579C17.0452 27.3614 15.7535 24.2475 15.75 20.9997Z" fill="url(#paint0_linear_73_689)"/>
<defs>
<linearGradient id="paint0_linear_73_689" x1="28" y1="1.73828" x2="28" y2="54.251" gradientUnits="userSpaceOnUse">
<stop stop-color="#5C2F01"/>
<stop offset="1" stop-color="#F2A460"/>
</linearGradient>
</defs>
</svg>
