<svg width="191" height="84" viewBox="0 0 191 84" fill="none" xmlns="http://www.w3.org/2000/svg">
<path d="M24.497 0.952881C20.7522 2.18399 17.8221 3.53582 14.2118 6.23686C13.7437 6.69248 13.2848 7.15786 12.8354 7.63271C12.8867 7.75604 12.9658 7.90835 13.0827 8.12297C13.2998 8.52216 13.6741 8.99957 14.1449 9.47175C13.4233 10.6525 12.7461 11.8608 12.1145 13.0941C11.3315 12.4317 10.6288 11.6945 10.0641 10.8672C8.42678 12.9482 6.96555 15.1671 5.69612 17.4999C5.78054 17.8564 6.02888 18.2451 6.50398 18.7659C7.07162 19.3876 7.95834 20.0297 8.98868 20.5775C8.55611 21.9104 8.1851 23.2367 7.88033 24.5606C6.29026 23.8241 4.8359 22.868 3.69271 21.6532C2.40388 24.7094 1.44324 27.8988 0.827591 31.1657C1.11291 31.6961 1.62135 32.1818 2.39031 32.698C3.47429 33.4257 5.03188 34.0219 6.72497 34.3664C6.71535 35.769 6.77839 37.1603 6.8985 38.5334C4.46061 38.1689 2.11012 37.3899 0.193058 36.1026C0.182372 36.0952 0.170404 36.0895 0.159718 36.0821C-0.114027 39.4153 -0.0357127 42.7688 0.393313 46.0849C0.887005 46.8431 1.71324 47.3829 2.94448 47.8145C4.52729 48.3693 6.67859 48.5432 8.86878 48.3183C9.29622 49.6523 9.78243 50.9614 10.3242 52.2404C7.33855 52.6976 4.28942 52.5939 1.6487 51.6684C1.57668 51.6432 1.50658 51.6135 1.43498 51.5867C2.28028 54.9378 3.48763 58.183 5.03487 61.2626C5.79422 61.8736 6.81943 62.1813 8.18082 62.2772C10.1684 62.4175 12.6997 61.9002 15.1135 60.895C15.9049 62.0378 16.7427 63.1464 17.6247 64.218C14.5108 65.6811 11.1361 66.544 7.99382 66.3424C10.1211 69.5278 12.6219 72.4364 15.4407 75.0038C16.3511 75.3189 17.4282 75.323 18.7264 75.0648C20.7781 74.6567 23.1835 73.4515 25.3581 71.7964C25.3598 71.7975 25.3636 71.7953 25.3649 71.7964C26.4636 72.6621 27.5978 73.4799 28.7644 74.2477C26.2048 76.4071 23.2878 78.1036 20.316 78.8715C22.8268 80.6037 25.5002 82.0771 28.2969 83.2699C29.3521 83.3621 30.4961 83.0608 31.79 82.4188C33.4296 81.605 35.1625 80.185 36.7119 78.4357C40.3529 79.9137 44.1348 80.8805 47.9457 81.2476L48.3261 77.1893C45.2767 76.8952 42.2171 76.15 39.2298 75.0239C40.7008 72.6035 41.711 69.9746 41.9953 67.7381C42.2471 65.7522 42.013 64.2175 41.187 63.0668C39.4602 62.7225 37.791 62.2083 36.1913 61.5415C36.1546 62.9513 35.8267 64.3714 35.2894 65.7021C34.489 67.6856 33.2548 69.5802 31.7566 71.3063C30.608 70.5858 29.4915 69.8133 28.4104 68.9912C29.8253 67.4263 30.9586 65.7293 31.5961 64.1495C32.4095 62.1349 32.488 60.5373 31.7297 59.1793C30.0738 58.0992 28.5233 56.8398 27.0882 55.4272C26.7092 56.3641 26.1933 57.2509 25.5853 58.0624C24.415 59.6236 22.8984 61.0062 21.1906 62.1817C20.31 61.1533 19.4697 60.0893 18.6794 58.9813C20.2079 57.9585 21.521 56.7805 22.413 55.5904C23.4898 54.1536 23.9561 52.8863 23.7954 51.6477C22.7196 50.2004 21.755 48.6706 20.9102 47.0719C20.4212 47.6584 19.8726 48.1903 19.2737 48.6589C17.8294 49.7865 16.1111 50.6537 14.2714 51.2802C13.7168 50.0403 13.212 48.7748 12.7754 47.4807C14.3627 46.9567 15.7952 46.2424 16.8424 45.4244C18.0598 44.4739 18.7236 43.5625 18.8796 42.5373C18.2245 40.7694 17.6955 38.9556 17.2968 37.1099C16.8977 37.3443 16.4826 37.5491 16.0547 37.7229C14.4625 38.365 12.6886 38.689 10.8656 38.7579C10.7213 37.4031 10.6477 36.0415 10.6448 34.6789C12.1316 34.6215 13.5223 34.3657 14.5858 33.9369C15.5689 33.5403 16.209 33.1089 16.5826 32.5751C16.3595 30.4176 16.3014 28.2456 16.4088 26.0789C16.2699 26.1016 16.1331 26.1182 15.9946 26.1334C14.5789 26.2914 13.0974 26.1661 11.6335 25.8408C11.9263 24.5378 12.2896 23.2238 12.7221 21.9049C13.763 22.1082 14.7606 22.1714 15.5603 22.0823C16.119 22.02 16.5289 21.9175 16.8427 21.7759C17.1362 19.8568 17.5626 17.9614 18.1186 16.1036C17.2248 15.9433 16.3481 15.6478 15.5005 15.2593C16.1197 14.0414 16.7859 12.849 17.4975 11.6847C18.0134 11.8945 18.5054 12.0475 18.9266 12.114C19.1632 12.151 19.359 12.1717 19.5212 12.175C19.9371 11.1639 20.3808 10.1769 20.8638 9.21965C22.1243 6.64804 23.5171 3.93523 24.497 0.952881Z" fill="url(#paint0_linear_74_694)"/>
<path d="M166.214 1.39502C169.889 2.59937 172.765 3.92181 176.309 6.56413C176.768 7.00985 177.219 7.46511 177.66 7.92963C177.609 8.05028 177.532 8.19928 177.417 8.40924C177.204 8.79975 176.836 9.26678 176.374 9.7287C177.083 10.8838 177.747 12.0658 178.367 13.2723C179.136 12.6243 179.825 11.9031 180.38 11.0938C181.987 13.1295 183.421 15.3002 184.667 17.5823C184.584 17.9311 184.34 18.3113 183.874 18.8208C183.317 19.4289 182.446 20.0571 181.435 20.593C181.86 21.8969 182.224 23.1944 182.523 24.4896C184.084 23.7691 185.511 22.8337 186.633 21.6454C187.898 24.6351 188.841 27.7552 189.445 30.9511C189.165 31.4699 188.666 31.945 187.911 32.45C186.847 33.1619 185.319 33.7451 183.657 34.0822C183.666 35.4543 183.604 36.8153 183.487 38.1586C185.879 37.802 188.186 37.0399 190.068 35.7806C190.078 35.7734 190.09 35.7678 190.101 35.7606C190.369 39.0213 190.292 42.3019 189.871 45.5459C189.387 46.2877 188.576 46.8157 187.367 47.2379C185.814 47.7806 183.702 47.9507 181.553 47.7307C181.133 49.0357 180.656 50.3164 180.124 51.5676C183.055 52.0148 186.047 51.9134 188.639 51.0081C188.71 50.9833 188.779 50.9544 188.849 50.9281C188.019 54.2064 186.834 57.381 185.316 60.3937C184.57 60.9914 183.564 61.2924 182.228 61.3862C180.277 61.5234 177.793 61.0174 175.424 60.0341C174.647 61.152 173.825 62.2365 172.959 63.2848C176.015 64.7161 179.327 65.5602 182.412 65.3631C180.324 68.4792 177.869 71.3246 175.103 73.8362C174.209 74.1444 173.152 74.1484 171.878 73.8958C169.864 73.4966 167.503 72.3176 165.369 70.6985C165.367 70.6995 165.363 70.6974 165.362 70.6985C164.284 71.5453 163.171 72.3454 162.026 73.0965C164.538 75.2089 167.401 76.8686 170.318 77.6197C167.853 79.3143 165.229 80.7557 162.484 81.9226C161.449 82.0127 160.326 81.7179 159.056 81.09C157.447 80.2938 155.746 78.9047 154.225 77.1934C150.652 78.6393 146.94 79.5851 143.2 79.9442L142.826 75.9742C145.819 75.6864 148.822 74.9574 151.754 73.8558C150.31 71.488 149.319 68.9162 149.04 66.7284C148.793 64.7856 149.022 63.2843 149.833 62.1587C151.528 61.8219 153.166 61.3188 154.736 60.6665C154.772 62.0457 155.094 63.4348 155.621 64.7366C156.407 66.677 157.618 68.5304 159.089 70.2191C160.216 69.5142 161.312 68.7585 162.373 67.9542C160.984 66.4233 159.872 64.7632 159.246 63.2178C158.448 61.247 158.371 59.6841 159.115 58.3557C160.74 57.299 162.262 56.067 163.671 54.6851C164.043 55.6017 164.549 56.4692 165.146 57.263C166.295 58.7903 167.783 60.1428 169.459 61.2928C170.323 60.2867 171.148 59.2458 171.924 58.1619C170.424 57.1613 169.135 56.009 168.259 54.8447C167.203 53.4392 166.745 52.1994 166.903 50.9878C167.958 49.5719 168.905 48.0754 169.734 46.5115C170.214 47.0852 170.753 47.6055 171.341 48.0639C172.758 49.167 174.445 50.0154 176.25 50.6282C176.795 49.4153 177.29 48.1773 177.719 46.9114C176.161 46.3987 174.755 45.7 173.727 44.8998C172.532 43.97 171.88 43.0783 171.727 42.0754C172.37 40.346 172.89 38.5716 173.281 36.766C173.673 36.9953 174.08 37.1957 174.5 37.3657C176.063 37.9938 177.804 38.3108 179.593 38.3782C179.735 37.0529 179.807 35.7209 179.81 34.3878C178.35 34.3318 176.985 34.0815 175.942 33.662C174.977 33.2741 174.349 32.852 173.982 32.3298C174.201 30.2192 174.258 28.0944 174.152 25.9748C174.289 25.997 174.423 26.0132 174.559 26.0281C175.948 26.1827 177.402 26.0601 178.839 25.7419C178.552 24.4672 178.195 23.1818 177.771 21.8916C176.749 22.0905 175.77 22.1523 174.985 22.0651C174.437 22.0041 174.034 21.9039 173.727 21.7654C173.438 19.888 173.02 18.0337 172.474 16.2164C173.352 16.0595 174.212 15.7705 175.044 15.3904C174.436 14.199 173.782 13.0325 173.084 11.8935C172.577 12.0988 172.095 12.2485 171.681 12.3135C171.449 12.3497 171.257 12.37 171.098 12.3732C170.689 11.3841 170.254 10.4185 169.78 9.48207C168.543 6.96637 167.176 4.31253 166.214 1.39502Z" fill="url(#paint1_linear_74_694)"/>
<defs>
<linearGradient id="paint0_linear_74_694" x1="24.163" y1="0.952881" x2="24.163" y2="83.2862" gradientUnits="userSpaceOnUse">
<stop stop-color="#FFE207"/>
<stop offset="1" stop-color="#F4D37E" stop-opacity="0"/>
</linearGradient>
<linearGradient id="paint1_linear_74_694" x1="166.542" y1="1.39502" x2="166.542" y2="81.9385" gradientUnits="userSpaceOnUse">
<stop stop-color="#FFE207"/>
<stop offset="1" stop-color="#F4D37E" stop-opacity="0"/>
</linearGradient>
</defs>
</svg>
