<svg width="56" height="56" viewBox="0 0 56 56" fill="none" xmlns="http://www.w3.org/2000/svg">
<path d="M47.25 21.0002C47.2519 17.7561 46.434 14.5642 44.8721 11.7209C43.3103 8.87755 41.0552 6.47504 38.3163 4.73651C35.5774 2.99798 32.4436 1.97981 29.2059 1.77658C25.9683 1.57336 22.7317 2.19166 19.7969 3.57406C16.8622 4.95646 14.3244 7.05812 12.4192 9.68383C10.5141 12.3095 9.30342 15.3741 8.89967 18.593C8.49593 21.8118 8.9122 25.0805 10.1098 28.0954C11.3074 31.1103 13.2476 33.7736 15.75 35.838V52.5002C15.7498 52.7987 15.8259 53.0922 15.9711 53.3529C16.1163 53.6137 16.3258 53.833 16.5797 53.9899C16.8335 54.1469 17.1233 54.2363 17.4214 54.2497C17.7196 54.2631 18.0162 54.2 18.2831 54.0665L28 49.219L37.7191 54.0774C37.9628 54.1938 38.2299 54.2529 38.5 54.2502C38.9641 54.2502 39.4093 54.0658 39.7374 53.7376C40.0656 53.4095 40.25 52.9643 40.25 52.5002V35.838C42.4395 34.0347 44.2027 31.769 45.413 29.2036C46.6233 26.6383 47.2506 23.8367 47.25 21.0002ZM12.25 21.0002C12.25 17.8851 13.1737 14.84 14.9044 12.25C16.635 9.6599 19.0948 7.64118 21.9727 6.4491C24.8507 5.25702 28.0175 4.94512 31.0727 5.55283C34.1279 6.16055 36.9343 7.66059 39.1369 9.86327C41.3396 12.0659 42.8397 14.8723 43.4474 17.9275C44.0551 20.9827 43.7432 24.1495 42.5511 27.0275C41.359 29.9054 39.3403 32.3652 36.7502 34.0958C34.1602 35.8265 31.1151 36.7502 28 36.7502C23.8243 36.7456 19.8209 35.0847 16.8682 32.132C13.9155 29.1793 12.2546 25.1759 12.25 21.0002ZM15.75 21.0002C15.75 18.5774 16.4685 16.209 17.8145 14.1945C19.1605 12.18 21.0737 10.6098 23.3121 9.68268C25.5505 8.7555 28.0136 8.51291 30.3899 8.98558C32.7661 9.45825 34.9489 10.6249 36.6621 12.3381C38.3753 14.0513 39.542 16.2341 40.0146 18.6103C40.4873 20.9866 40.2447 23.4497 39.3175 25.6881C38.3904 27.9265 36.8202 29.8397 34.8057 31.1857C32.7912 32.5318 30.4228 33.2502 28 33.2502C24.7522 33.2467 21.6383 31.955 19.3418 29.6584C17.0452 27.3619 15.7535 24.248 15.75 21.0002Z" fill="url(#paint0_linear_73_398)"/>
<defs>
<linearGradient id="paint0_linear_73_398" x1="28" y1="1.73877" x2="28" y2="54.2515" gradientUnits="userSpaceOnUse">
<stop stop-color="#DA7400"/>
<stop offset="1" stop-color="#F4D37E"/>
</linearGradient>
</defs>
</svg>
