<svg width="166" height="71" viewBox="0 0 166 71" fill="none" xmlns="http://www.w3.org/2000/svg">
<path d="M21.8373 0C18.6231 1.05666 16.1083 2.21694 13.0095 4.53524C12.6077 4.9263 12.2138 5.32573 11.8282 5.73329C11.8722 5.83915 11.9401 5.96987 12.0404 6.15409C12.2268 6.49671 12.548 6.90647 12.9521 7.31174C12.3328 8.3252 11.7515 9.3623 11.2094 10.4208C10.5373 9.85223 9.93419 9.21954 9.44955 8.50942C8.04423 10.2956 6.79005 12.2 5.7005 14.2023C5.77296 14.5083 5.98611 14.8419 6.39389 15.2889C6.88109 15.8225 7.64216 16.3736 8.5265 16.8438C8.15523 17.9878 7.83679 19.1262 7.57521 20.2625C6.21045 19.6304 4.96217 18.8098 3.98098 17.7671C2.87477 20.3902 2.05026 23.1277 1.52184 25.9317C1.76673 26.3869 2.20312 26.8037 2.86312 27.2468C3.79351 27.8714 5.13038 28.3831 6.58356 28.6788C6.5753 29.8827 6.62942 31.0768 6.73251 32.2554C4.64006 31.9425 2.62264 31.2739 0.977225 30.169C0.968054 30.1626 0.957781 30.1578 0.948609 30.1514C0.713654 33.0122 0.780871 35.8906 1.1491 38.7368C1.57284 39.3876 2.282 39.8508 3.33877 40.2213C4.69729 40.6975 6.54375 40.8467 8.4236 40.6537C8.79047 41.7987 9.20778 42.9223 9.67279 44.0201C7.1102 44.4124 4.49313 44.3234 2.2266 43.5292C2.16479 43.5075 2.10462 43.482 2.04317 43.459C2.76869 46.3353 3.80496 49.1206 5.13295 51.7638C5.7847 52.2882 6.66464 52.5523 7.83312 52.6346C9.53907 52.755 11.7117 52.3111 13.7834 51.4483C14.4627 52.4291 15.1817 53.3807 15.9388 54.3004C13.2661 55.5562 10.3697 56.2968 7.67261 56.1238C9.49849 58.8578 11.6449 61.3543 14.0642 63.5579C14.8457 63.8283 15.7702 63.8319 16.8844 63.6103C18.6453 63.26 20.7099 62.2256 22.5764 60.805C22.5778 60.8059 22.5811 60.804 22.5822 60.805C23.5252 61.548 24.4987 62.2499 25.5 62.9089C23.3031 64.7623 20.7994 66.2185 18.2488 66.8775C20.4037 68.3643 22.6984 69.6289 25.0988 70.6527C26.0044 70.7318 26.9863 70.4732 28.0968 69.9222C29.5042 69.2237 30.9915 68.0049 32.3214 66.5035C35.4464 67.772 38.6924 68.6018 41.9633 68.917L42.2898 65.4337C39.6725 65.1812 37.0465 64.5416 34.4824 63.5751C35.745 61.4977 36.6121 59.2413 36.8561 57.3217C37.0722 55.6172 36.8713 54.3 36.1623 53.3124C34.6802 53.0169 33.2475 52.5755 31.8745 52.0032C31.843 53.2133 31.5616 54.4321 31.1004 55.5742C30.4135 57.2766 29.3541 58.9028 28.0682 60.3844C27.0824 59.7659 26.1241 59.1029 25.1962 58.3973C26.4105 57.0541 27.3833 55.5976 27.9305 54.2417C28.6286 52.5125 28.6959 51.1413 28.0451 49.9757C26.6239 49.0487 25.293 47.9677 24.0613 46.7553C23.736 47.5594 23.2932 48.3206 22.7714 49.0171C21.7669 50.3571 20.4652 51.5437 18.9994 52.5527C18.2436 51.67 17.5224 50.7567 16.844 49.8057C18.1559 48.9279 19.283 47.9168 20.0486 46.8953C20.9728 45.6621 21.373 44.5744 21.2351 43.5114C20.3118 42.2691 19.4839 40.9561 18.7587 39.584C18.339 40.0873 17.8682 40.5439 17.3541 40.946C16.1145 41.9139 14.6397 42.6582 13.0607 43.1959C12.5846 42.1317 12.1514 41.0455 11.7766 39.9348C13.139 39.485 14.3686 38.872 15.2674 38.1699C16.3122 37.3541 16.882 36.5718 17.0159 35.6919C16.4536 34.1745 15.9995 32.6177 15.6574 31.0336C15.3148 31.2347 14.9585 31.4106 14.5912 31.5597C13.2247 32.1108 11.7021 32.3889 10.1374 32.448C10.0136 31.2852 9.9504 30.1166 9.94794 28.947C11.2241 28.8978 12.4177 28.6782 13.3305 28.3102C14.1743 27.9698 14.7237 27.5995 15.0443 27.1413C14.8529 25.2895 14.803 23.4254 14.8952 21.5657C14.776 21.5851 14.6586 21.5993 14.5397 21.6124C13.3246 21.748 12.053 21.6405 10.7965 21.3613C11.0478 20.2429 11.3597 19.1152 11.7309 17.9831C12.6243 18.1576 13.4805 18.2118 14.167 18.1354C14.6465 18.0819 14.9983 17.994 15.2676 17.8724C15.5195 16.2253 15.8855 14.5984 16.3627 13.0039C15.5956 12.8662 14.8431 12.6126 14.1156 12.2792C14.6471 11.2339 15.2189 10.2104 15.8296 9.21112C16.2724 9.39122 16.6947 9.52251 17.0562 9.57955C17.2593 9.61135 17.4273 9.62911 17.5666 9.63192C17.9235 8.76414 18.3043 7.91694 18.7189 7.09536C19.8008 4.88815 20.9963 2.55975 21.8373 0Z" fill="url(#paint0_linear_74_695)"/>
<path d="M144.552 0.768066C147.707 1.80176 150.175 2.93681 153.216 5.20471C153.611 5.58727 153.997 5.97802 154.376 6.37672C154.333 6.48027 154.266 6.60816 154.168 6.78837C153.985 7.12354 153.669 7.5244 153.273 7.92086C153.881 8.91229 154.451 9.92683 154.983 10.9623C155.643 10.4061 156.235 9.78718 156.71 9.0925C158.09 10.8398 159.321 12.7029 160.39 14.6616C160.319 14.961 160.11 15.2873 159.709 15.7246C159.231 16.2466 158.484 16.7857 157.616 17.2457C157.981 18.3648 158.293 19.4785 158.55 20.5901C159.89 19.9717 161.115 19.1689 162.078 18.1489C163.163 20.715 163.973 23.393 164.491 26.136C164.251 26.5813 163.823 26.9891 163.175 27.4225C162.262 28.0336 160.95 28.5342 159.523 28.8234C159.531 30.0011 159.478 31.1693 159.377 32.3222C161.431 32.0162 163.411 31.3621 165.026 30.2812C165.035 30.275 165.045 30.2702 165.054 30.264C165.285 33.0627 165.219 35.8784 164.857 38.6627C164.441 39.2994 163.745 39.7526 162.708 40.115C161.375 40.5808 159.562 40.7268 157.717 40.538C157.357 41.658 156.948 42.7572 156.491 43.8312C159.006 44.215 161.575 44.1279 163.8 43.3509C163.86 43.3297 163.919 43.3048 163.98 43.2823C163.268 46.096 162.25 48.8208 160.947 51.4066C160.307 51.9196 159.444 52.1779 158.297 52.2584C156.623 52.3763 154.49 51.9419 152.457 51.098C151.79 52.0574 151.084 52.9883 150.341 53.888C152.965 55.1166 155.807 55.8411 158.454 55.6718C156.662 58.3464 154.556 60.7886 152.181 62.9443C151.414 63.2088 150.507 63.2123 149.413 62.9955C147.685 62.6528 145.659 61.6409 143.827 60.2512C143.825 60.2521 143.822 60.2503 143.821 60.2512C142.895 60.978 141.94 61.6647 140.957 62.3094C143.113 64.1225 145.571 65.547 148.074 66.1917C145.959 67.6461 143.707 68.8833 141.351 69.8848C140.462 69.9622 139.498 69.7092 138.408 69.1702C137.027 68.4869 135.567 67.2946 134.262 65.8258C131.195 67.0668 128.009 67.8785 124.799 68.1868L124.478 64.7793C127.047 64.5323 129.625 63.9066 132.141 62.9611C130.902 60.9288 130.051 58.7215 129.811 56.8436C129.599 55.1762 129.796 53.8876 130.492 52.9215C131.947 52.6324 133.353 52.2006 134.701 51.6408C134.732 52.8245 135.008 54.0168 135.46 55.1341C136.135 56.7996 137.174 58.3903 138.437 59.8397C139.404 59.2347 140.345 58.5861 141.255 57.8958C140.064 56.5818 139.109 55.157 138.572 53.8306C137.887 52.139 137.82 50.7975 138.459 49.6574C139.854 48.7505 141.16 47.693 142.369 46.5069C142.688 47.2936 143.123 48.0382 143.635 48.7195C144.621 50.0304 145.899 51.1913 147.337 52.1783C148.079 51.3148 148.787 50.4214 149.453 49.4911C148.165 48.6323 147.059 47.6432 146.308 46.6439C145.401 45.4375 145.008 44.3735 145.143 43.3335C146.049 42.1183 146.862 40.8338 147.574 39.4915C147.986 39.9839 148.448 40.4305 148.952 40.824C150.169 41.7707 151.616 42.4989 153.166 43.0249C153.633 41.9839 154.059 40.9213 154.426 39.8347C153.089 39.3947 151.883 38.795 151 38.1082C149.975 37.3101 149.416 36.5448 149.284 35.684C149.836 34.1996 150.282 32.6767 150.618 31.127C150.954 31.3238 151.303 31.4958 151.664 31.6416C153.005 32.1808 154.5 32.4529 156.035 32.5107C156.157 31.3732 156.219 30.2299 156.221 29.0858C154.969 29.0377 153.797 28.8229 152.901 28.4628C152.073 28.1298 151.534 27.7676 151.219 27.3193C151.407 25.5078 151.456 23.6842 151.366 21.8649C151.483 21.8839 151.598 21.8979 151.715 21.9107C152.907 22.0433 154.155 21.9381 155.388 21.665C155.142 20.5709 154.836 19.4677 154.471 18.3602C153.594 18.5309 152.754 18.584 152.08 18.5092C151.61 18.4568 151.264 18.3709 151 18.2519C150.753 16.6406 150.394 15.0491 149.925 13.4893C150.678 13.3546 151.417 13.1065 152.131 12.7803C151.609 11.7577 151.048 10.7565 150.448 9.77894C150.014 9.95513 149.599 10.0836 149.245 10.1394C149.045 10.1705 148.88 10.1878 148.744 10.1906C148.393 9.34168 148.02 8.5129 147.613 7.70918C146.551 5.54995 145.378 3.27217 144.552 0.768066Z" fill="url(#paint1_linear_74_695)"/>
<defs>
<linearGradient id="paint0_linear_74_695" x1="21.5507" y1="0" x2="21.5507" y2="70.6667" gradientUnits="userSpaceOnUse">
<stop stop-color="#C3C3C3"/>
<stop offset="1" stop-color="white" stop-opacity="0"/>
</linearGradient>
<linearGradient id="paint1_linear_74_695" x1="144.833" y1="0.768066" x2="144.833" y2="69.8985" gradientUnits="userSpaceOnUse">
<stop stop-color="#C3C3C3"/>
<stop offset="1" stop-color="white" stop-opacity="0"/>
</linearGradient>
</defs>
</svg>
